HIERARCHY
ROOT Hips
{
	OFFSET	0.000000	0.000000	0.000000
	CHANNELS 6 Xposition Yposition Zposition Zrotation Xrotation Yrotation
	JOINT LeftHip
	{
		OFFSET	4.740440	-3.195970	-0.322709
		CHANNELS 3 Zrotation Xrotation Yrotation
		JOINT LeftKnee
		{
			OFFSET	-1.605680	-15.592300	1.005510
			CHANNELS 3 Zrotation Xrotation Yrotation
			JOINT LeftAnkle
			{
				OFFSET	-0.632401	-16.421000	-1.413730
				CHANNELS 3 Zrotation Xrotation Yrotation
				End Site
				{
					OFFSET	0.008423	-2.933000	-1.684880
				}
			}
		}
	}
	JOINT RightHip
	{
		OFFSET	-4.740440	-3.195970	-0.322709
		CHANNELS 3 Zrotation Xrotation Yrotation
		JOINT RightKnee
		{
			OFFSET	1.605680	-15.592300	1.005510
			CHANNELS 3 Zrotation Xrotation Yrotation
			JOINT RightAnkle
			{
				OFFSET	0.632401	-16.421000	-1.413730
				CHANNELS 3 Zrotation Xrotation Yrotation
				End Site
				{
					OFFSET	-0.008423	-2.933000	-1.684880
				}
			}
		}
	}
	JOINT Chest
	{
		OFFSET	0.000000	3.468200	0.078401
		CHANNELS 3 Zrotation Xrotation Yrotation
		JOINT LeftCollar
		{
			OFFSET	3.857650	15.070700	-0.011583
			CHANNELS 3 Zrotation Xrotation Yrotation
			JOINT LeftShoulder
			{
				OFFSET	3.979720	-1.940530	-0.165223
				CHANNELS 3 Zrotation Xrotation Yrotation
				JOINT LeftElbow
				{
					OFFSET	0.615844	-10.986600	-0.673886
					CHANNELS 3 Zrotation Xrotation Yrotation
					JOINT LeftWrist
					{
						OFFSET	0.826843	-10.854500	1.034220
						CHANNELS 3 Zrotation Xrotation Yrotation
						End Site
						{
							OFFSET	-1.679080	-8.456540	0.936217
						}
					}
				}
			}
		}
		JOINT RightCollar
		{
			OFFSET	-3.857650	15.070700	-0.011583
			CHANNELS 3 Zrotation Xrotation Yrotation
			JOINT RightShoulder
			{
				OFFSET	-3.979720	-1.940530	-0.165223
				CHANNELS 3 Zrotation Xrotation Yrotation
				JOINT RightElbow
				{
					OFFSET	-0.615845	-10.986600	-0.673886
					CHANNELS 3 Zrotation Xrotation Yrotation
					JOINT RightWrist
					{
						OFFSET	-0.826843	-10.854500	1.034220
						CHANNELS 3 Zrotation Xrotation Yrotation
						End Site
						{
							OFFSET	1.679080	-8.456540	0.936217
						}
					}
				}
			}
		}
		JOINT Neck
		{
			OFFSET	0.000000	15.101400	0.055730
			CHANNELS 3 Zrotation Xrotation Yrotation
			JOINT Head
			{
				OFFSET	0.000000	4.185120	1.488260
				CHANNELS 3 Zrotation Xrotation Yrotation
				End Site
				{
					OFFSET	0.000000	7.773420	-0.106016
				}
			}
		}
	}
}
MOTION
Frames:     21
Frame Time: 0.016667
-1.520941	37.674114	-1.361636	4.652977	-11.039192	-9.923559	-3.132520	8.927313	-1.025738	-2.050338	2.531280	6.429121	1.129661	-3.276962	5.077671	-20.275658	-2.111403	-4.484463	5.562814	24.295420	1.944821	8.508032	-9.846171	4.159024	-7.815645	8.804593	0.994181	-2.284190	4.739745	1.689924	4.165905	-5.697297	4.178770	-10.479543	-7.613417	-11.093548	18.640474	5.590847	-20.605820	1.237887	1.046672	0.763571	-5.320635	-1.547488	3.948296	2.305483	-10.194515	9.405378	-21.213118	4.168372	18.505770	0.430523	5.570527	1.205095	-0.768358	1.864483	4.814203	
-1.521988	37.673859	-1.358496	4.662961	-11.014679	-9.926337	-3.137637	8.908879	-1.024828	-2.051103	2.523566	6.431120	1.129661	-3.276962	5.077671	-20.281181	-2.127973	-4.481413	5.570115	24.293142	1.936350	8.504591	-9.853712	4.159816	-7.821247	8.778357	0.995325	-2.282065	4.751499	1.690264	4.162008	-5.700395	4.177930	-10.475777	-7.617540	-11.093407	18.638300	5.585927	-20.604485	1.242370	1.051597	0.768916	-5.313529	-1.518207	3.943342	2.290960	-10.220151	9.406044	-21.212593	4.167409	18.512236	0.429594	5.597445	1.207657	-0.767908	1.837587	4.811367	
-1.523817	37.674049	-1.352326	4.669654	-10.998248	-9.928196	-3.139452	8.911517	-1.028941	-2.053114	2.503228	6.436388	1.129661	-3.276962	5.077671	-20.284882	-2.117086	-4.460736	5.592078	24.284744	1.910128	8.494781	-9.875198	4.162079	-7.827760	8.774755	1.009876	-2.271653	4.773585	1.680401	4.149638	-5.710481	4.172357	-10.464277	-7.629310	-11.092925	18.631618	5.570817	-20.600384	1.258695	1.052228	0.772062	-5.320114	-1.511547	3.945182	2.293001	-10.217613	9.390182	-21.226248	4.165260	18.533901	0.432406	5.611286	1.196999	-0.764171	1.818806	4.810417	
-1.524579	37.673904	-1.350001	4.676280	-10.981975	-9.930060	-3.142752	8.900167	-1.028589	-2.053709	2.497214	6.437933	1.129661	-3.276962	5.077671	-20.288601	-2.124893	-4.455834	5.599233	24.281584	1.901434	8.491692	-9.881967	4.162802	-7.832791	8.765082	1.018505	-2.267413	4.778409	1.674359	4.145237	-5.713961	4.169883	-10.460075	-7.633059	-11.092702	18.629152	5.565229	-20.598871	1.264727	1.049501	0.770215	-5.323993	-1.515376	3.960020	2.293482	-10.211483	9.370033	-21.231194	4.164326	18.541735	0.433858	5.617257	1.190669	-0.760268	1.815387	4.811192	
-1.526200	37.674049	-1.344557	4.682528	-10.966635	-9.931808	-3.144570	8.901465	-1.032060	-2.055470	2.479401	6.442551	1.129661	-3.276962	5.077671	-20.292307	-2.114126	-4.435181	5.622937	24.277916	1.874787	8.480339	-9.906835	4.165434	-7.840405	8.772431	1.043285	-2.255505	4.793146	1.658237	4.132738	-5.725192	4.160099	-10.447107	-7.644004	-11.091969	18.626801	5.559653	-20.594023	1.283705	1.041551	0.765094	-5.335945	-1.521642	3.961754	2.301764	-10.197319	9.352308	-21.243870	4.157860	18.572018	0.438151	5.641536	1.171886	-0.748896	1.796815	4.812500	
-1.526910	37.673923	-1.342373	4.688451	-10.952091	-9.933463	-3.147477	8.891713	-1.031885	-2.056040	2.473631	6.444036	1.129661	-3.276962	5.077671	-20.295698	-2.120529	-4.430094	5.626808	24.268286	1.867235	8.480339	-9.906835	4.165434	-7.841037	8.767943	1.048953	-2.255938	4.795253	1.655614	4.128647	-5.729214	4.156403	-10.442655	-7.647586	-11.091712	18.628889	5.564116	-20.592264	1.286102	1.036080	0.766096	-5.340743	-1.527201	3.975334	2.302958	-10.189645	9.338258	-21.245951	4.153716	18.581446	0.435039	5.653269	1.168713	-0.745154	1.783431	4.812129	
-1.528104	37.673954	-1.338449	4.694258	-10.937838	-9.935096	-3.149612	8.888732	-1.033820	-2.057260	2.461313	6.447259	1.129661	-3.276962	5.077671	-20.299297	-2.108843	-4.409020	5.649571	24.262331	1.840699	8.470087	-9.929267	4.167819	-7.846415	8.777043	1.075098	-2.243562	4.801305	1.650777	4.112660	-5.732788	4.132738	-10.428600	-7.657299	-11.090748	18.625748	5.556712	-20.587002	1.303996	1.028480	0.760323	-5.356952	-1.542827	3.966429	2.316420	-10.164840	9.348375	-21.251215	4.140965	18.609520	0.436995	5.697546	1.150116	-0.734398	1.741965	4.810845	
-1.528368	37.673710	-1.337844	4.699871	-10.924047	-9.936684	-3.152952	8.874076	-1.031946	-2.057260	2.461313	6.447259	1.129661	-3.276962	5.077671	-20.302647	-2.114501	-4.403365	5.658892	24.263500	1.831020	8.465253	-9.939846	4.168958	-7.847573	8.781759	1.090538	-2.241518	4.792510	1.642443	4.107063	-5.734087	4.124374	-10.423741	-7.660412	-11.090398	18.628740	5.563165	-20.585049	1.307382	1.014701	0.752180	-5.362366	-1.548378	3.969181	2.319602	-10.148024	9.353005	-21.250469	4.131669	18.622435	0.435599	5.695301	1.136735	-0.730973	1.733531	4.810946	
-1.528629	37.673466	-1.337249	4.705389	-10.910511	-9.938215	-3.156231	8.859688	-1.030139	-2.057260	2.461313	6.447259	1.129661	-3.276962	5.077671	-20.305969	-2.101480	-4.382226	5.670976	24.234829	1.808005	8.464918	-9.940565	4.169034	-7.843790	8.791029	1.101506	-2.245597	4.795609	1.651742	4.097439	-5.733923	4.100617	-10.408856	-7.669679	-11.089289	18.626286	5.557224	-20.579414	1.316681	1.008790	0.760804	-5.379537	-1.564194	3.947817	2.323012	-10.130703	9.367815	-21.245382	4.122122	18.645870	0.428960	5.687899	1.126989	-0.721640	1.742710	4.814726	
-1.528757	37.673347	-1.336957	4.708124	-10.903794	-9.938995	-3.157857	8.852545	-1.029221	-2.057260	2.461313	6.447259	1.129661	-3.276962	5.077671	-20.307621	-2.099476	-4.375406	5.674999	24.225014	1.800187	8.464918	-9.940565	4.169034	-7.847168	8.800884	1.118709	-2.247782	4.784111	1.640255	4.100331	-5.730196	4.094331	-10.403796	-7.672492	-11.088888	18.630411	5.566166	-20.577387	1.323938	0.997351	0.751138	-5.385293	-1.569494	3.940656	2.322397	-10.112967	9.382453	-21.243006	4.111342	18.639223	0.430661	5.716781	1.114790	-0.721317	1.705525	4.815210	
-1.528898	37.673214	-1.336637	4.711099	-10.896483	-9.939842	-3.159627	8.844775	-1.028227	-2.057260	2.461313	6.447259	1.129661	-3.276962	5.077671	-20.309870	-2.080883	-4.352697	5.687191	24.196573	1.776752	8.464918	-9.940565	4.169034	-7.843923	8.816690	1.129059	-2.269497	4.777702	1.648372	4.110846	-5.721481	4.073503	-10.388080	-7.679679	-11.087515	18.628433	5.561264	-20.571327	1.325127	0.980526	0.748482	-5.391943	-1.575609	3.932379	2.320980	-10.094799	9.397552	-21.243092	4.099986	18.618284	0.425911	5.708692	1.105634	-0.712448	1.715790	4.819667	
-1.528898	37.673214	-1.336637	4.711099	-10.896483	-9.939842	-3.159627	8.844775	-1.028227	-2.057260	2.461313	6.447259	1.129661	-3.276962	5.077671	-20.310167	-2.072426	-4.344586	5.691383	24.187397	1.768806	8.464918	-9.940565	4.169034	-7.844922	8.825376	1.136693	-2.273497	4.774565	1.646767	4.114051	-5.718158	4.066872	-10.382839	-7.682183	-11.087053	18.629726	5.563930	-20.569328	1.320977	0.979883	0.737960	-5.386890	-1.584177	3.934918	2.320276	-10.085089	9.398507	-21.243671	4.091343	18.613758	0.426979	5.715473	1.099655	-0.709114	1.708942	4.819909	
-1.528898	37.673214	-1.336637	4.711099	-10.896483	-9.939842	-3.159627	8.844775	-1.028227	-2.057260	2.461313	6.447259	1.129661	-3.276962	5.077671	-20.309586	-2.048346	-4.326842	5.699470	24.161703	1.752090	8.464918	-9.940565	4.169034	-7.851035	8.851168	1.160845	-2.271761	4.755284	1.629114	4.114350	-5.696343	4.057352	-10.366581	-7.689620	-11.085633	18.619968	5.540867	-20.555662	1.327889	0.964651	0.718701	-5.388161	-1.595004	3.930514	2.317899	-10.056014	9.404872	-21.244909	4.066707	18.596863	0.433317	5.737064	1.081045	-0.704693	1.700553	4.833299	
-1.528898	37.673214	-1.336637	4.711099	-10.896483	-9.939842	-3.159627	8.844775	-1.028227	-2.057260	2.461313	6.447259	1.129661	-3.276962	5.077671	-20.308304	-2.040450	-4.325124	5.699178	24.153606	1.751135	8.464918	-9.940565	4.169034	-7.853189	8.859758	1.168741	-2.269152	4.746957	1.621184	4.112766	-5.686990	4.056095	-10.361023	-7.691884	-11.085117	18.625154	5.549550	-20.534315	1.337083	0.973948	0.721993	-5.395852	-1.611926	3.918085	2.317216	-10.047294	9.412233	-21.244953	4.061296	18.586708	0.434785	5.769944	1.077426	-0.696697	1.679758	4.833455	
-1.528898	37.673214	-1.336637	4.711099	-10.896483	-9.939842	-3.159627	8.844775	-1.028227	-2.057260	2.461313	6.447259	1.129661	-3.276962	5.077671	-20.304644	-2.017945	-4.320159	5.698373	24.130524	1.748338	8.464918	-9.940565	4.169034	-7.860950	8.893299	1.200459	-2.259544	4.714497	1.589250	4.107949	-5.658533	4.052286	-10.344527	-7.699396	-11.083669	18.624720	5.545473	-20.509073	1.354767	0.950749	0.704447	-5.406576	-1.621785	3.904748	2.315217	-10.022113	9.433726	-21.245047	4.045758	18.557158	0.444451	5.748093	1.048155	-0.684651	1.700896	4.839365	
-1.528898	37.673214	-1.336637	4.711099	-10.896483	-9.939842	-3.159627	8.844775	-1.028227	-2.057260	2.461313	6.447259	1.129661	-3.276962	5.077671	-20.303453	-2.010641	-4.318552	5.698108	24.123030	1.747430	8.464918	-9.940565	4.169034	-7.863955	8.908490	1.215470	-2.260167	4.704104	1.579225	4.110329	-5.654031	4.046548	-10.339194	-7.701864	-11.083190	18.626524	5.547989	-20.497112	1.361303	0.955561	0.697992	-5.410752	-1.641321	3.895067	2.314571	-10.013993	9.440659	-21.245077	4.040749	18.547628	0.447882	5.754677	1.035736	-0.672021	1.713374	4.844464	
-1.528898	37.673214	-1.336637	4.711099	-10.896483	-9.939842	-3.159627	8.844775	-1.028227	-2.057260	2.461313	6.447259	1.129661	-3.276962	5.077671	-20.300001	-1.989349	-4.313866	5.697344	24.101192	1.744791	8.464918	-9.940565	4.169034	-7.866227	8.922238	1.229611	-2.274394	4.707665	1.584754	4.120748	-5.644653	4.025548	-10.324101	-7.710891	-11.082026	18.632854	5.557093	-20.458086	1.371077	0.955331	0.694763	-5.409628	-1.630208	3.903556	2.298409	-10.012846	9.442348	-21.242397	4.034863	18.539507	0.450290	5.770876	1.024843	-0.659892	1.715944	4.848338	
-1.528898	37.673214	-1.336637	4.711099	-10.896483	-9.939842	-3.159627	8.844775	-1.028227	-2.057260	2.461313	6.447259	1.129661	-3.276962	5.077671	-20.298859	-1.982336	-4.312319	5.697095	24.093998	1.743916	8.464918	-9.940565	4.169034	-7.868143	8.935597	1.243743	-2.277934	4.700936	1.577589	4.124697	-5.642123	4.018024	-10.319283	-7.714189	-11.081683	18.635006	5.560190	-20.444714	1.382080	0.951650	0.692182	-5.416079	-1.630796	3.898361	2.292877	-10.012751	9.443018	-21.241016	4.034992	18.540333	0.453326	5.758748	1.011140	-0.649820	1.743055	4.854292	
-1.528898	37.673214	-1.336637	4.711099	-10.896483	-9.939842	-3.159627	8.844775	-1.028227	-2.057260	2.461313	6.447259	1.129661	-3.276962	5.077671	-20.295631	-1.962468	-4.307938	5.696380	24.073616	1.741443	8.464918	-9.940565	4.169034	-7.869833	8.948815	1.257976	-2.284369	4.697078	1.573390	4.128081	-5.625276	4.005507	-10.305028	-7.722945	-11.080601	18.632315	5.548881	-20.402884	1.392471	0.947695	0.688997	-5.416472	-1.615779	3.900246	2.278404	-10.012217	9.452062	-21.235338	4.026930	18.541336	0.456102	5.745389	0.997203	-0.645916	1.754043	4.856619	
-1.528898	37.673214	-1.336637	4.711099	-10.896483	-9.939842	-3.159627	8.844775	-1.028227	-2.057260	2.461313	6.447259	1.129661	-3.276962	5.077671	-20.294014	-1.952563	-4.305815	5.695988	24.063461	1.740280	8.464918	-9.940565	4.169034	-7.871778	8.961935	1.271796	-2.279157	4.692870	1.565814	4.123369	-5.625352	3.998230	-10.300499	-7.726049	-11.080286	18.629969	5.541983	-20.389454	1.402927	0.943634	0.686056	-5.422926	-1.616731	3.889199	2.274744	-10.011646	9.459169	-21.233122	4.022459	18.541695	0.459083	5.732120	0.983726	-0.638772	1.774203	4.860894	
-1.528898	37.673214	-1.336637	4.711099	-10.896483	-9.939842	-3.159627	8.844775	-1.028227	-2.057260	2.461313	6.447259	1.129661	-3.276962	5.077671	-20.294014	-1.952563	-4.305815	5.696641	24.063570	1.731163	8.465856	-9.939350	4.177933	-7.876087	8.973093	1.280361	-2.269310	4.700951	1.572073	4.112214	-5.620491	3.981201	-10.287367	-7.734423	-11.079302	18.625650	5.529037	-20.362915	1.415395	0.941333	0.688372	-5.424221	-1.604231	3.884180	2.263336	-10.010860	9.475348	-21.226681	4.011169	18.541580	0.463871	5.720810	0.975881	-0.631992	1.793388	4.864946	
